<svg width="23" height="22" viewBox="0 0 23 22" fill="none" xmlns="http://www.w3.org/2000/svg">
<g id="Group 888">
<path id="Vector" d="M21.1148 16.5977C21.1148 16.9369 21.0357 17.2856 20.8676 17.6249C20.6994 17.9642 20.4819 18.2846 20.1951 18.5862C19.7105 19.0951 19.1765 19.4627 18.5733 19.6983C17.9799 19.9339 17.3371 20.0564 16.6449 20.0564C15.6362 20.0564 14.5583 19.8302 13.421 19.3684C12.2838 18.9067 11.1466 18.2846 10.0192 17.5024C8.88194 16.7108 7.80403 15.8343 6.77556 14.8636C5.75698 13.8834 4.83729 12.8561 4.01649 11.7818C3.20559 10.7074 2.55291 9.63298 2.07823 8.56802C1.60355 7.49363 1.36621 6.46637 1.36621 5.48622C1.36621 4.84536 1.48488 4.23277 1.72222 3.6673C1.95956 3.09241 2.33534 2.56464 2.85947 2.09342C3.49237 1.49968 4.18461 1.20752 4.91641 1.20752C5.1933 1.20752 5.4702 1.26407 5.71742 1.37716C5.97454 1.49025 6.20199 1.65989 6.37999 1.90493L8.67427 4.98673C8.85228 5.22234 8.98083 5.4391 9.06984 5.64644C9.15884 5.84435 9.20828 6.04227 9.20828 6.22133C9.20828 6.44752 9.13906 6.6737 9.00061 6.89047C8.87205 7.10723 8.68416 7.33342 8.44682 7.5596L7.69525 8.30414C7.58647 8.4078 7.53702 8.53032 7.53702 8.68111C7.53702 8.75651 7.54691 8.82248 7.56669 8.89788C7.59636 8.97327 7.62602 9.02982 7.6458 9.08637C7.82381 9.39737 8.13037 9.80263 8.56549 10.2927C9.0105 10.7828 9.48518 11.2823 9.99941 11.7818C10.5334 12.2813 11.0477 12.7431 11.5718 13.1672C12.086 13.5818 12.5112 13.8646 12.8475 14.0342C12.8969 14.0531 12.9563 14.0813 13.0255 14.1096C13.1046 14.1379 13.1837 14.1473 13.2727 14.1473C13.4408 14.1473 13.5694 14.0908 13.6782 13.9871L14.4297 13.2803C14.677 13.0446 14.9143 12.8656 15.1418 12.7525C15.3692 12.6205 15.5967 12.5546 15.8439 12.5546C16.0318 12.5546 16.2296 12.5923 16.4471 12.6771C16.6647 12.7619 16.8921 12.8844 17.1394 13.0446L20.4127 15.2594C20.6698 15.429 20.8478 15.6269 20.9566 15.8626C21.0554 16.0982 21.1148 16.3338 21.1148 16.5977Z" stroke="#00A653" stroke-width="2" stroke-miterlimit="10"/>
<path id="Vector_2" opacity="0.4" d="M18.029 7.687C18.029 7.08115 17.5318 6.15216 16.7912 5.39484C16.1141 4.6981 15.2149 4.15283 14.3262 4.15283" stroke="#00A653" stroke-width="2" stroke-linecap="round" stroke-linejoin="round"/>
<path id="Vector_3" opacity="0.4" d="M21.1147 7.68683C21.1147 4.1047 18.0793 1.20752 14.3262 1.20752" stroke="#00A653" stroke-width="2" stroke-linecap="round" stroke-linejoin="round"/>
</g>
</svg>
